<mxfile host="app.diagrams.net" modified="2023-02-26T16:18:47.651Z" agent="5.0 (Macintosh; Intel Mac OS X 10_15_7) AppleWebKit/537.36 (KHTML, like Gecko) Chrome/109.0.0.0 Safari/537.36 Edg/109.0.1518.70" etag="haObA_LUsspnIQm13m6p" version="20.8.23" type="github">
  <diagram name="第 1 页" id="3W59HrMSy9bwTNsNiB9n">
    <mxGraphModel dx="1099" dy="1829" grid="1" gridSize="10" guides="1" tooltips="1" connect="1" arrows="1" fold="1" page="1" pageScale="1" pageWidth="827" pageHeight="1169" math="0" shadow="0">
      <root>
        <mxCell id="0" />
        <mxCell id="1" parent="0" />
        <mxCell id="JeT1pM1Ys8IacdRDiyVi-6" value="LightingLambert_GI" style="swimlane;whiteSpace=wrap;html=1;labelBackgroundColor=none;fillColor=#F2CC8F;strokeColor=#E07A5F;fontColor=#393C56;rounded=1;" parent="1" vertex="1">
          <mxGeometry x="90" y="170" width="620" height="460" as="geometry" />
        </mxCell>
        <mxCell id="JeT1pM1Ys8IacdRDiyVi-19" value="UnityGlobalIllumination" style="swimlane;labelBackgroundColor=none;fillColor=#F2CC8F;strokeColor=#E07A5F;fontColor=#393C56;rounded=1;" parent="JeT1pM1Ys8IacdRDiyVi-6" vertex="1">
          <mxGeometry x="195" y="200" width="230" height="240" as="geometry" />
        </mxCell>
        <mxCell id="JeT1pM1Ys8IacdRDiyVi-20" value="UnityGl_base" style="swimlane;labelBackgroundColor=none;fillColor=#F2CC8F;strokeColor=#E07A5F;fontColor=#393C56;rounded=1;" parent="JeT1pM1Ys8IacdRDiyVi-19" vertex="1">
          <mxGeometry x="15" y="30" width="200" height="200" as="geometry" />
        </mxCell>
        <mxCell id="JeT1pM1Ys8IacdRDiyVi-7" value="SurfaceOutput S" style="swimlane;fontStyle=0;childLayout=stackLayout;horizontal=1;startSize=30;horizontalStack=0;resizeParent=1;resizeParentMax=0;resizeLast=0;collapsible=1;marginBottom=0;whiteSpace=wrap;html=1;labelBackgroundColor=none;fillColor=#F2CC8F;strokeColor=#E07A5F;fontColor=#393C56;rounded=1;" parent="1" vertex="1">
          <mxGeometry x="560" y="-80" width="130" height="210" as="geometry" />
        </mxCell>
        <mxCell id="JeT1pM1Ys8IacdRDiyVi-8" value="Albedo" style="text;strokeColor=none;fillColor=none;align=left;verticalAlign=middle;spacingLeft=4;spacingRight=4;overflow=hidden;points=[[0,0.5],[1,0.5]];portConstraint=eastwest;rotatable=0;whiteSpace=wrap;html=1;labelBackgroundColor=none;fontColor=#393C56;rounded=1;" parent="JeT1pM1Ys8IacdRDiyVi-7" vertex="1">
          <mxGeometry y="30" width="130" height="30" as="geometry" />
        </mxCell>
        <mxCell id="JeT1pM1Ys8IacdRDiyVi-9" value="Normal" style="text;strokeColor=none;fillColor=none;align=left;verticalAlign=middle;spacingLeft=4;spacingRight=4;overflow=hidden;points=[[0,0.5],[1,0.5]];portConstraint=eastwest;rotatable=0;whiteSpace=wrap;html=1;labelBackgroundColor=none;fontColor=#393C56;rounded=1;" parent="JeT1pM1Ys8IacdRDiyVi-7" vertex="1">
          <mxGeometry y="60" width="130" height="30" as="geometry" />
        </mxCell>
        <mxCell id="JeT1pM1Ys8IacdRDiyVi-10" value="Emission" style="text;strokeColor=none;fillColor=none;align=left;verticalAlign=middle;spacingLeft=4;spacingRight=4;overflow=hidden;points=[[0,0.5],[1,0.5]];portConstraint=eastwest;rotatable=0;whiteSpace=wrap;html=1;labelBackgroundColor=none;fontColor=#393C56;rounded=1;" parent="JeT1pM1Ys8IacdRDiyVi-7" vertex="1">
          <mxGeometry y="90" width="130" height="30" as="geometry" />
        </mxCell>
        <mxCell id="JeT1pM1Ys8IacdRDiyVi-121" value="Specular" style="text;strokeColor=none;fillColor=none;align=left;verticalAlign=middle;spacingLeft=4;spacingRight=4;overflow=hidden;points=[[0,0.5],[1,0.5]];portConstraint=eastwest;rotatable=0;whiteSpace=wrap;html=1;labelBackgroundColor=none;fontColor=#393C56;rounded=1;" parent="JeT1pM1Ys8IacdRDiyVi-7" vertex="1">
          <mxGeometry y="120" width="130" height="30" as="geometry" />
        </mxCell>
        <mxCell id="JeT1pM1Ys8IacdRDiyVi-122" value="Gloss" style="text;strokeColor=none;fillColor=none;align=left;verticalAlign=middle;spacingLeft=4;spacingRight=4;overflow=hidden;points=[[0,0.5],[1,0.5]];portConstraint=eastwest;rotatable=0;whiteSpace=wrap;html=1;labelBackgroundColor=none;fontColor=#393C56;rounded=1;" parent="JeT1pM1Ys8IacdRDiyVi-7" vertex="1">
          <mxGeometry y="150" width="130" height="30" as="geometry" />
        </mxCell>
        <mxCell id="JeT1pM1Ys8IacdRDiyVi-123" value="Alpha" style="text;strokeColor=none;fillColor=none;align=left;verticalAlign=middle;spacingLeft=4;spacingRight=4;overflow=hidden;points=[[0,0.5],[1,0.5]];portConstraint=eastwest;rotatable=0;whiteSpace=wrap;html=1;labelBackgroundColor=none;fontColor=#393C56;rounded=1;" parent="JeT1pM1Ys8IacdRDiyVi-7" vertex="1">
          <mxGeometry y="180" width="130" height="30" as="geometry" />
        </mxCell>
        <mxCell id="JeT1pM1Ys8IacdRDiyVi-24" value="UnityGI gi" style="swimlane;fontStyle=0;childLayout=stackLayout;horizontal=1;startSize=30;horizontalStack=0;resizeParent=1;resizeParentMax=0;resizeLast=0;collapsible=1;marginBottom=0;whiteSpace=wrap;html=1;labelBackgroundColor=none;fillColor=#F2CC8F;strokeColor=#E07A5F;fontColor=#393C56;rounded=1;" parent="1" vertex="1">
          <mxGeometry x="840" y="110" width="140" height="90" as="geometry">
            <mxRectangle x="840" y="110" width="90" height="30" as="alternateBounds" />
          </mxGeometry>
        </mxCell>
        <mxCell id="JeT1pM1Ys8IacdRDiyVi-25" value="light" style="text;strokeColor=none;fillColor=none;align=left;verticalAlign=middle;spacingLeft=4;spacingRight=4;overflow=hidden;points=[[0,0.5],[1,0.5]];portConstraint=eastwest;rotatable=0;whiteSpace=wrap;html=1;labelBackgroundColor=none;fontColor=#393C56;rounded=1;" parent="JeT1pM1Ys8IacdRDiyVi-24" vertex="1">
          <mxGeometry y="30" width="140" height="30" as="geometry" />
        </mxCell>
        <mxCell id="JeT1pM1Ys8IacdRDiyVi-26" value="indirect" style="text;strokeColor=none;fillColor=none;align=left;verticalAlign=middle;spacingLeft=4;spacingRight=4;overflow=hidden;points=[[0,0.5],[1,0.5]];portConstraint=eastwest;rotatable=0;whiteSpace=wrap;html=1;labelBackgroundColor=none;fontColor=#393C56;rounded=1;" parent="JeT1pM1Ys8IacdRDiyVi-24" vertex="1">
          <mxGeometry y="60" width="140" height="30" as="geometry" />
        </mxCell>
        <mxCell id="JeT1pM1Ys8IacdRDiyVi-76" style="edgeStyle=orthogonalEdgeStyle;rounded=1;orthogonalLoop=1;jettySize=auto;html=1;entryX=1;entryY=0.5;entryDx=0;entryDy=0;labelBackgroundColor=none;strokeColor=#E07A5F;fontColor=default;" parent="1" source="JeT1pM1Ys8IacdRDiyVi-70" target="JeT1pM1Ys8IacdRDiyVi-25" edge="1">
          <mxGeometry relative="1" as="geometry" />
        </mxCell>
        <mxCell id="JeT1pM1Ys8IacdRDiyVi-70" value="UnityLight" style="swimlane;fontStyle=0;childLayout=stackLayout;horizontal=1;startSize=30;horizontalStack=0;resizeParent=1;resizeParentMax=0;resizeLast=0;collapsible=1;marginBottom=0;whiteSpace=wrap;html=1;labelBackgroundColor=none;fillColor=#F2CC8F;strokeColor=#E07A5F;fontColor=#393C56;rounded=1;direction=east;noLabel=0;container=0;movableLabel=0;arcSize=19;autosize=0;treeFolding=0;treeMoving=0;enumerate=0;comic=0;swimlaneLine=1;glass=0;shadow=0;fontSize=11;" parent="1" vertex="1">
          <mxGeometry x="1100" y="20" width="120" height="90" as="geometry" />
        </mxCell>
        <mxCell id="JeT1pM1Ys8IacdRDiyVi-71" value="Color" style="text;strokeColor=none;fillColor=none;align=left;verticalAlign=middle;spacingLeft=4;spacingRight=4;overflow=hidden;points=[[0,0.5],[1,0.5]];portConstraint=eastwest;rotatable=0;whiteSpace=wrap;html=1;labelBackgroundColor=none;fontColor=#393C56;rounded=1;glass=0;shadow=0;" parent="JeT1pM1Ys8IacdRDiyVi-70" vertex="1">
          <mxGeometry y="30" width="120" height="30" as="geometry" />
        </mxCell>
        <mxCell id="JeT1pM1Ys8IacdRDiyVi-72" value="dir" style="text;strokeColor=none;fillColor=none;align=left;verticalAlign=middle;spacingLeft=4;spacingRight=4;overflow=hidden;points=[[0,0.5],[1,0.5]];portConstraint=eastwest;rotatable=0;whiteSpace=wrap;html=1;labelBackgroundColor=none;fontColor=#393C56;rounded=1;" parent="JeT1pM1Ys8IacdRDiyVi-70" vertex="1">
          <mxGeometry y="60" width="120" height="30" as="geometry" />
        </mxCell>
        <mxCell id="JeT1pM1Ys8IacdRDiyVi-80" style="edgeStyle=orthogonalEdgeStyle;rounded=1;orthogonalLoop=1;jettySize=auto;html=1;entryX=1;entryY=0.5;entryDx=0;entryDy=0;exitX=0.5;exitY=0;exitDx=0;exitDy=0;labelBackgroundColor=none;strokeColor=#E07A5F;fontColor=default;" parent="1" source="JeT1pM1Ys8IacdRDiyVi-100" target="JeT1pM1Ys8IacdRDiyVi-26" edge="1">
          <mxGeometry relative="1" as="geometry">
            <mxPoint x="1140" y="215" as="sourcePoint" />
          </mxGeometry>
        </mxCell>
        <mxCell id="JeT1pM1Ys8IacdRDiyVi-100" value="UnityIndirect" style="swimlane;fontStyle=0;childLayout=stackLayout;horizontal=1;startSize=30;horizontalStack=0;resizeParent=1;resizeParentMax=0;resizeLast=0;collapsible=1;marginBottom=0;whiteSpace=wrap;html=1;labelBackgroundColor=none;fillColor=#F2CC8F;strokeColor=#E07A5F;fontColor=#393C56;rounded=1;direction=east;noLabel=0;container=0;movableLabel=0;arcSize=19;autosize=0;treeFolding=0;treeMoving=0;enumerate=0;comic=0;glass=0;labelBorderColor=none;verticalAlign=middle;align=center;" parent="1" vertex="1">
          <mxGeometry x="1100" y="210" width="120" height="90" as="geometry" />
        </mxCell>
        <mxCell id="JeT1pM1Ys8IacdRDiyVi-101" value="Diffuse" style="text;strokeColor=none;fillColor=none;align=left;verticalAlign=middle;spacingLeft=4;spacingRight=4;overflow=hidden;points=[[0,0.5],[1,0.5]];portConstraint=eastwest;rotatable=0;whiteSpace=wrap;html=1;labelBackgroundColor=none;fontColor=#393C56;rounded=1;" parent="JeT1pM1Ys8IacdRDiyVi-100" vertex="1">
          <mxGeometry y="30" width="120" height="30" as="geometry" />
        </mxCell>
        <mxCell id="JeT1pM1Ys8IacdRDiyVi-124" value="Specular" style="text;strokeColor=none;fillColor=none;align=left;verticalAlign=middle;spacingLeft=4;spacingRight=4;overflow=hidden;points=[[0,0.5],[1,0.5]];portConstraint=eastwest;rotatable=0;whiteSpace=wrap;html=1;labelBackgroundColor=none;fontColor=#393C56;rounded=1;" parent="JeT1pM1Ys8IacdRDiyVi-100" vertex="1">
          <mxGeometry y="60" width="120" height="30" as="geometry" />
        </mxCell>
        <mxCell id="JeT1pM1Ys8IacdRDiyVi-133" value="" style="group" parent="1" vertex="1" connectable="0">
          <mxGeometry y="-90" width="290" height="150" as="geometry" />
        </mxCell>
        <mxCell id="JeT1pM1Ys8IacdRDiyVi-11" value="UnityGIInput data" style="swimlane;fontStyle=0;childLayout=stackLayout;horizontal=1;startSize=30;horizontalStack=0;resizeParent=1;resizeParentMax=0;resizeLast=0;collapsible=1;marginBottom=0;whiteSpace=wrap;html=1;labelBackgroundColor=none;fillColor=#F2CC8F;strokeColor=#E07A5F;fontColor=#393C56;rounded=1;" parent="JeT1pM1Ys8IacdRDiyVi-133" vertex="1">
          <mxGeometry x="150" width="140" height="150" as="geometry">
            <mxRectangle x="150" width="130" height="30" as="alternateBounds" />
          </mxGeometry>
        </mxCell>
        <mxCell id="JeT1pM1Ys8IacdRDiyVi-129" value="light" style="text;strokeColor=none;fillColor=none;align=left;verticalAlign=middle;spacingLeft=4;spacingRight=4;overflow=hidden;points=[[0,0.5],[1,0.5]];portConstraint=eastwest;rotatable=0;whiteSpace=wrap;html=1;labelBackgroundColor=none;fontColor=#393C56;rounded=1;" parent="JeT1pM1Ys8IacdRDiyVi-11" vertex="1">
          <mxGeometry y="30" width="140" height="30" as="geometry" />
        </mxCell>
        <mxCell id="JeT1pM1Ys8IacdRDiyVi-12" value="worldPos" style="text;strokeColor=none;fillColor=none;align=left;verticalAlign=middle;spacingLeft=4;spacingRight=4;overflow=hidden;points=[[0,0.5],[1,0.5]];portConstraint=eastwest;rotatable=0;whiteSpace=wrap;html=1;labelBackgroundColor=none;fontColor=#393C56;rounded=1;" parent="JeT1pM1Ys8IacdRDiyVi-11" vertex="1">
          <mxGeometry y="60" width="140" height="30" as="geometry" />
        </mxCell>
        <mxCell id="JeT1pM1Ys8IacdRDiyVi-13" value="worldViewDir" style="text;strokeColor=none;fillColor=none;align=left;verticalAlign=middle;spacingLeft=4;spacingRight=4;overflow=hidden;points=[[0,0.5],[1,0.5]];portConstraint=eastwest;rotatable=0;whiteSpace=wrap;html=1;labelBackgroundColor=none;fontColor=#393C56;rounded=1;" parent="JeT1pM1Ys8IacdRDiyVi-11" vertex="1">
          <mxGeometry y="90" width="140" height="30" as="geometry" />
        </mxCell>
        <mxCell id="JeT1pM1Ys8IacdRDiyVi-14" value="mbient" style="text;strokeColor=none;fillColor=none;align=left;verticalAlign=middle;spacingLeft=4;spacingRight=4;overflow=hidden;points=[[0,0.5],[1,0.5]];portConstraint=eastwest;rotatable=0;whiteSpace=wrap;html=1;labelBackgroundColor=none;fontColor=#393C56;rounded=1;" parent="JeT1pM1Ys8IacdRDiyVi-11" vertex="1">
          <mxGeometry y="120" width="140" height="30" as="geometry" />
        </mxCell>
        <mxCell id="JeT1pM1Ys8IacdRDiyVi-126" value="UnityLight" style="swimlane;fontStyle=0;childLayout=stackLayout;horizontal=1;startSize=30;horizontalStack=0;resizeParent=1;resizeParentMax=0;resizeLast=0;collapsible=1;marginBottom=0;whiteSpace=wrap;html=1;labelBackgroundColor=none;fillColor=#F2CC8F;strokeColor=#E07A5F;fontColor=#393C56;rounded=1;direction=east;noLabel=0;container=0;movableLabel=0;arcSize=19;autosize=0;treeFolding=0;treeMoving=0;enumerate=0;comic=0;swimlaneLine=1;glass=0;shadow=0;fontSize=11;" parent="JeT1pM1Ys8IacdRDiyVi-133" vertex="1">
          <mxGeometry width="120" height="90" as="geometry" />
        </mxCell>
        <mxCell id="JeT1pM1Ys8IacdRDiyVi-127" value="Color" style="text;strokeColor=none;fillColor=none;align=left;verticalAlign=middle;spacingLeft=4;spacingRight=4;overflow=hidden;points=[[0,0.5],[1,0.5]];portConstraint=eastwest;rotatable=0;whiteSpace=wrap;html=1;labelBackgroundColor=none;fontColor=#393C56;rounded=1;glass=0;shadow=0;" parent="JeT1pM1Ys8IacdRDiyVi-126" vertex="1">
          <mxGeometry y="30" width="120" height="30" as="geometry" />
        </mxCell>
        <mxCell id="JeT1pM1Ys8IacdRDiyVi-128" value="dir" style="text;strokeColor=none;fillColor=none;align=left;verticalAlign=middle;spacingLeft=4;spacingRight=4;overflow=hidden;points=[[0,0.5],[1,0.5]];portConstraint=eastwest;rotatable=0;whiteSpace=wrap;html=1;labelBackgroundColor=none;fontColor=#393C56;rounded=1;" parent="JeT1pM1Ys8IacdRDiyVi-126" vertex="1">
          <mxGeometry y="60" width="120" height="30" as="geometry" />
        </mxCell>
        <mxCell id="JeT1pM1Ys8IacdRDiyVi-132" style="edgeStyle=orthogonalEdgeStyle;rounded=1;orthogonalLoop=1;jettySize=auto;html=1;entryX=0;entryY=0.5;entryDx=0;entryDy=0;strokeColor=#E07A5F;fontSize=11;fontColor=#393C56;fillColor=#F2CC8F;" parent="JeT1pM1Ys8IacdRDiyVi-133" source="JeT1pM1Ys8IacdRDiyVi-126" target="JeT1pM1Ys8IacdRDiyVi-129" edge="1">
          <mxGeometry relative="1" as="geometry" />
        </mxCell>
      </root>
    </mxGraphModel>
  </diagram>
</mxfile>
